<svg xmlns="http://www.w3.org/2000/svg" width="32" height="32" viewBox="0 0 32 32" fill="none">
  <defs>
    <linearGradient id="bg" x1="0" y1="0" x2="32" y2="32" gradientUnits="userSpaceOnUse">
      <stop stop-color="#6366f1"/>
      <stop offset="0.5" stop-color="#8b5cf6"/>
      <stop offset="1" stop-color="#a855f7"/>
    </linearGradient>
  </defs>
  <rect width="32" height="32" rx="8" fill="url(#bg)"/>
  <!-- Brain (simplified) -->
  <path d="M16 6c-3.5 0-6 2-6 5.5 0 1.5.6 2.8 1.3 3.7.5.7.7 1.6.3 2.5L11 19c-.2.5.2 1 .7 1H16" stroke="white" stroke-width="1.3" stroke-linecap="round" fill="none"/>
  <path d="M16 6c3.5 0 6 2 6 5.5 0 1.5-.6 2.8-1.3 3.7-.5.7-.7 1.6-.3 2.5L21 19c.2.5-.2 1-.7 1H16" stroke="white" stroke-width="1.3" stroke-linecap="round" fill="none"/>
  <!-- Neural dots -->
  <circle cx="12.5" cy="10" r="1" fill="white" opacity="0.9"/>
  <circle cx="19.5" cy="10" r="1" fill="white" opacity="0.9"/>
  <circle cx="16" cy="13" r="0.8" fill="white" opacity="0.7"/>
  <!-- Connections -->
  <line x1="12.5" y1="10" x2="16" y2="13" stroke="white" stroke-width="0.5" opacity="0.4"/>
  <line x1="19.5" y1="10" x2="16" y2="13" stroke="white" stroke-width="0.5" opacity="0.4"/>
  <!-- Hand fingers -->
  <path d="M12.5 23v-1.5M14.5 24v-2.5M16 24.5v-3M17.5 24v-2.5M19.5 23v-1.5" stroke="white" stroke-width="1.2" stroke-linecap="round" opacity="0.85"/>
  <!-- Palm -->
  <path d="M12 23c0 1 1.8 2.5 4 2.5s4-1.5 4-2.5" stroke="white" stroke-width="0.8" stroke-linecap="round" fill="none" opacity="0.5"/>
</svg>