<svg xmlns="http://www.w3.org/2000/svg" width="240" height="240" viewBox="0 0 240 240" fill="none">
  <rect width="240" height="240" rx="20" fill="#0f172a"/>
  <rect x="16" y="16" width="208" height="208" rx="16" stroke="rgba(148,163,184,0.35)" stroke-width="2" stroke-dasharray="8 6"/>
  <path d="M120 196c-18 0-32-14-32-32V96c0-10 8-18 18-18h8c6 0 11 3 14 8 3-5 8-8 14-8h8c10 0 18 8 18 18v68c0 18-14 32-32 32h-16z" fill="rgba(96,165,250,0.15)" stroke="#60a5fa" stroke-width="2.5"/>
  <path d="M88 120v36c0 9 7 16 16 16M152 120v36c0 9-7 16-16 16" stroke="#a78bfa" stroke-width="2" stroke-linecap="round"/>
  <text x="120" y="224" text-anchor="middle" fill="rgba(148,163,184,0.7)" font-size="11" font-family="system-ui,sans-serif">Reference pose</text>
</svg>
